<?xml version="1.0" standalone="no"?>
<!DOCTYPE svg PUBLIC "-//W3C//DTD SVG 20010904//EN"
 "http://www.w3.org/TR/2001/REC-SVG-20010904/DTD/svg10.dtd">
<svg version="1.0" xmlns="http://www.w3.org/2000/svg"
 width="900.000000pt" height="111.000000pt" viewBox="0 0 900.000000 111.000000"
 preserveAspectRatio="xMidYMid meet">
<metadata>
Created by potrace 1.10, written by Peter Selinger 2001-2011
</metadata>
<g transform="translate(0.000000,111.000000) scale(0.100000,-0.100000)"
fill="#000000" stroke="none">
<path d="M386 965 c-55 -58 -105 -105 -112 -105 -9 0 -14 19 -16 58 l-3 57
-109 3 c-133 3 -147 0 -119 -31 42 -45 43 -56 43 -366 0 -289 -6 -351 -31
-351 -5 0 -13 -10 -20 -21 -9 -17 -8 -23 2 -30 19 -12 182 -11 213 1 l26 10 0
207 c1 192 2 210 20 232 12 13 26 21 35 17 13 -4 15 -39 15 -230 0 -204 2
-226 18 -235 21 -11 463 -13 481 -1 10 6 10 12 2 29 -7 11 -16 21 -21 21 -23
0 -28 85 -26 440 1 206 0 381 -2 388 -8 25 -31 9 -132 -93 -60 -61 -109 -104
-117 -101 -10 4 -13 32 -13 106 0 89 -2 100 -17 100 -10 0 -63 -47 -117 -105z
m204 -540 c0 -243 -3 -257 -48 -191 -22 33 -23 40 -20 203 3 152 5 170 23 190
43 46 45 37 45 -202z"/>
<path d="M890 971 c0 -5 14 -23 30 -39 l30 -30 0 -206 0 -205 -28 -29 c-44
-45 -45 -57 -7 -99 45 -50 46 -89 4 -137 -17 -20 -28 -40 -24 -46 8 -12 394
-14 414 -1 10 6 14 36 15 107 1 55 0 107 -2 117 -6 23 -28 22 -46 -4 -18 -26
-92 -37 -126 -19 -38 20 -20 65 62 147 l72 73 -34 37 c-56 59 -74 72 -92 67
-20 -6 -33 26 -24 61 9 34 67 44 112 20 18 -10 35 -24 38 -31 6 -15 35 -20 37
-6 4 24 6 200 2 215 -4 15 -23 17 -219 17 -124 0 -214 -4 -214 -9z"/>
<path d="M1400 860 c0 -77 4 -120 10 -120 6 0 22 12 35 26 13 14 32 24 42 22
17 -3 18 -22 21 -265 l2 -261 -26 -31 c-46 -55 -33 -62 122 -59 91 2 139 7
141 14 2 6 -8 25 -22 42 l-25 30 0 266 c0 243 1 266 17 266 9 0 29 -12 44 -26
17 -16 34 -24 44 -20 13 5 15 23 13 118 l-3 113 -207 3 -208 2 0 -120z"/>
<path d="M1920 965 c0 -8 4 -15 10 -15 23 0 31 -41 20 -98 -6 -31 -18 -92 -26
-134 -31 -169 -46 -246 -59 -313 -7 -38 -16 -90 -20 -115 -3 -24 -17 -59 -31
-77 l-25 -33 47 -50 c26 -27 54 -50 63 -50 8 0 66 50 128 112 74 74 114 107
117 97 2 -8 7 -32 10 -54 3 -22 13 -46 23 -52 17 -13 139 -18 179 -7 l21 6
-23 46 c-13 26 -24 58 -24 72 0 14 -6 57 -14 95 -8 39 -22 108 -31 155 -9 47
-22 117 -30 155 -40 207 -40 213 -17 238 12 13 22 26 22 30 0 4 -76 7 -170 7
-144 0 -170 -2 -170 -15z m190 -427 c0 -30 -19 -58 -41 -58 -8 0 -10 13 -5 46
3 25 9 50 12 55 10 18 34 -12 34 -43z"/>
<path d="M2420 972 c0 -5 14 -21 30 -37 l30 -29 0 -321 0 -322 -30 -38 c-16
-20 -27 -41 -24 -46 8 -13 391 -11 415 1 17 10 19 22 19 125 0 94 -3 115 -15
115 -8 0 -23 -9 -33 -20 -22 -23 -78 -36 -116 -26 l-26 6 0 264 0 263 25 27
c14 15 25 31 25 37 0 5 -62 9 -150 9 -82 0 -150 -4 -150 -8z"/>
<path d="M3084 967 c-10 -26 1 -220 12 -224 6 -2 25 8 42 22 62 52 62 54 62
-242 l-1 -268 -29 -34 c-22 -26 -26 -37 -17 -43 6 -4 72 -8 145 -8 150 0 163
7 118 61 l-26 31 2 261 c3 231 5 262 19 265 9 2 27 -8 40 -22 44 -47 49 -37
49 94 l0 120 -205 0 c-161 0 -207 -3 -211 -13z"/>
<path d="M3540 969 c0 -6 11 -20 25 -31 l25 -19 0 -337 0 -337 -25 -24 c-30
-27 -31 -38 -7 -45 9 -3 133 -5 275 -5 282 1 294 4 246 55 -23 24 -24 34 -29
191 -5 153 -7 167 -25 177 -11 6 -22 12 -24 14 -3 1 6 17 20 35 23 31 24 39
24 182 l0 150 -252 3 c-182 2 -253 -1 -253 -9z m308 -181 c29 -29 -4 -118 -45
-118 -12 0 -19 45 -13 95 3 33 36 45 58 23z m12 -457 c0 -70 -3 -131 -7 -134
-7 -8 -52 38 -61 64 -4 10 -5 50 -2 88 4 55 10 75 29 95 13 14 28 23 32 20 5
-3 9 -63 9 -133z"/>
<path d="M4276 971 c-3 -4 3 -16 14 -26 24 -22 25 -39 6 -130 -8 -38 -22 -106
-30 -150 -27 -144 -45 -239 -61 -325 -9 -47 -25 -102 -36 -122 -10 -20 -19
-40 -19 -43 0 -14 84 -95 99 -95 10 0 64 47 121 105 57 58 108 104 114 102 6
-2 18 -28 26 -58 l16 -54 94 0 c79 0 95 3 93 15 -2 8 -12 51 -23 95 -11 44
-26 117 -35 163 -28 150 -46 246 -60 317 -27 137 -28 149 -6 177 12 14 21 29
21 32 0 10 -328 7 -334 -3z m184 -416 c0 -45 -4 -56 -21 -65 -11 -7 -23 -10
-25 -7 -4 4 12 94 22 125 9 30 24 -3 24 -53z"/>
<path d="M4670 970 c0 -5 14 -23 30 -40 l30 -31 0 -227 0 -227 214 -219 c127
-130 218 -216 225 -212 8 5 11 132 11 449 l0 441 32 33 c40 42 33 45 -108 41
l-109 -3 -3 -252 c-1 -147 -6 -253 -12 -253 -5 0 -22 11 -37 24 l-28 24 -3
231 -3 231 -120 0 c-70 0 -119 -4 -119 -10z"/>
<path d="M5290 968 c0 -7 12 -24 25 -37 l25 -23 0 -212 0 -212 -30 -29 c-16
-16 -30 -35 -30 -43 0 -8 14 -30 30 -49 40 -45 40 -86 0 -140 l-30 -41 22 -6
c38 -10 365 -7 392 4 26 9 26 10 26 123 0 63 -3 117 -6 120 -4 4 -22 -7 -41
-23 -26 -23 -43 -30 -77 -30 -89 0 -86 52 10 152 35 36 64 72 64 80 0 19 -82
98 -101 98 -38 0 -52 55 -22 85 24 24 88 14 122 -19 48 -46 52 -38 49 92 l-3
117 -212 3 c-167 2 -213 0 -213 -10z"/>
<path d="M5767 974 c-4 -4 7 -22 24 -41 l30 -35 -3 -322 -3 -322 -28 -34 c-22
-25 -25 -35 -15 -41 18 -12 371 -11 402 1 26 9 26 10 26 123 0 63 -3 117 -7
120 -4 4 -19 -5 -34 -19 -19 -18 -42 -28 -73 -31 -78 -9 -76 -15 -76 272 l0
253 25 30 c14 17 25 35 25 41 0 12 -281 16 -293 5z"/>
<path d="M6450 970 c0 -6 11 -21 25 -34 l25 -23 0 -446 c0 -311 3 -448 11
-453 6 -3 104 87 227 209 l216 215 5 85 c5 72 10 89 30 111 37 40 19 47 -105
44 l-109 -3 -3 -77 c-3 -72 -5 -79 -33 -103 -17 -14 -35 -23 -40 -19 -5 3 -9
70 -9 149 0 179 0 178 111 173 70 -3 81 -6 108 -32 45 -43 52 -28 49 100 l-3
109 -252 3 c-174 2 -253 -1 -253 -8z"/>
<path d="M7010 968 c0 -7 12 -24 25 -37 28 -26 28 -17 25 -481 -1 -135 3 -236
9 -253 l11 -27 232 0 c128 0 239 4 247 9 13 8 13 12 0 28 -8 10 -20 22 -26 26
-10 6 -13 87 -13 347 l0 339 25 19 c47 37 33 43 -92 40 l-118 -3 -3 -289 c-1
-200 -6 -294 -14 -303 -6 -8 -23 -13 -37 -11 l-26 3 -3 303 -2 302 -120 0
c-89 0 -120 -3 -120 -12z"/>
<path d="M7630 974 c0 -3 11 -19 25 -36 l25 -30 0 -327 0 -328 -25 -27 c-47
-51 -34 -56 128 -56 135 0 160 7 136 37 -8 10 -20 22 -26 26 -10 6 -13 86 -13
346 l0 338 25 23 c14 13 25 27 25 32 0 4 -67 8 -150 8 -82 0 -150 -3 -150 -6z"/>
<path d="M7987 974 c-4 -4 7 -22 23 -41 l30 -34 0 -317 0 -318 -30 -41 -31
-42 33 -6 c19 -4 109 -5 200 -3 l167 3 50 49 c27 27 55 61 61 76 7 18 10 116
8 298 l-3 271 -55 56 -54 55 -196 0 c-108 0 -200 -3 -203 -6z m297 -180 c14
-5 16 -33 16 -210 0 -180 -2 -205 -16 -211 -9 -3 -24 -2 -33 4 -14 9 -16 38
-19 197 -3 214 3 239 52 220z"/>
<path d="M8560 968 c0 -7 12 -24 25 -37 l25 -23 0 -209 0 -208 -30 -34 c-16
-19 -30 -40 -30 -47 0 -7 14 -28 30 -47 38 -43 39 -84 3 -136 -22 -32 -24 -40
-12 -48 8 -5 107 -9 222 -9 l207 0 0 130 c0 89 -4 130 -11 130 -6 0 -27 -14
-46 -30 -26 -23 -43 -30 -77 -30 -89 0 -86 52 10 152 35 36 64 72 64 80 0 19
-80 95 -104 100 -29 5 -42 32 -30 65 9 25 14 28 57 27 39 0 53 -6 80 -32 54
-52 57 -46 57 93 l0 125 -220 0 c-169 0 -220 -3 -220 -12z"/>
</g>
</svg>
