<svg xmlns="http://www.w3.org/2000/svg" xmlns:xlink="http://www.w3.org/1999/xlink" width="427" height="367" xmlns:v="https://vecta.io/nano"><g transform="matrix(.659316 0 0 .659316 -68.721978 12.285446)"><path d="M207.991 301.774h96v210.21h-96z" fill="#dbada2"/><path d="M186.651 394.644h138.68v85.34h-138.68z" fill="#434a54"/><path d="M245.324 437.303c0 5.905-4.781 10.687-10.672 10.687s-10.664-4.781-10.664-10.687a10.67 10.67 0 0 1 10.664-10.656c5.891 0 10.672 4.781 10.672 10.656zm42.66 0c0 5.905-4.779 10.687-10.654 10.687-5.898 0-10.68-4.781-10.68-10.687 0-5.875 4.781-10.656 10.68-10.656a10.67 10.67 0 0 1 10.654 10.656zm-101.331 10.686h-10.664c-5.891 0-10.664-4.781-10.664-10.687a10.67 10.67 0 0 1 10.664-10.656h10.664c5.89 0 10.671 4.781 10.671 10.656 0 5.906-4.781 10.687-10.671 10.687zm149.331 0h-10.656c-5.906 0-10.688-4.781-10.688-10.687 0-5.875 4.781-10.656 10.688-10.656h10.656a10.66 10.66 0 0 1 10.656 10.656c.001 5.906-4.764 10.687-10.656 10.687z" fill="#ffce54"/><path d="M335.984 0c-11.781 0-21.344 9.547-21.344 21.328v150.731c0 2.938-2.375 5.328-5.312 5.328a5.34 5.34 0 0 1-5.344-5.328v-22.733c0-11.781-9.562-21.328-21.342-21.328-11.773 0-21.32 9.547-21.32 21.328v22.734c0 2.938-2.391 5.328-5.336 5.328a5.34 5.34 0 0 1-5.336-5.328v-22.733c0-11.781-9.546-21.328-21.328-21.328s-21.335 9.547-21.335 21.328v22.734c0 2.938-2.39 5.328-5.335 5.328a5.33 5.33 0 0 1-5.328-5.328V42.655c0-11.78-9.555-21.327-21.335-21.327s-21.335 9.547-21.335 21.327v197.09c0 55.968 45.374 101.342 101.333 101.342 55.967 0 101.342-45.374 101.342-101.342V21.328C357.329 9.547 347.766 0 335.984 0z" fill="#eac6bb"/></g><g transform="matrix(.430744 0 0 .430744 202.27693 130.92159)"><path d="M347.787 397.818v-40.554h41.905a17.26 17.26 0 0 0 17.236-17.236V229.632a17.26 17.26 0 0 0-17.236-17.236h-41.905v-40.554h41.905c31.916 0 57.79 25.874 57.79 57.79v110.397c0 31.915-25.874 57.79-57.79 57.79z" fill="#ffe285"/><path d="M202.943 105.822h-40.207v81.137c0 13.365-10.835 24.2-24.199 24.2s-24.199-10.836-24.199-24.2v-81.137H64.517v398.574h283.27V105.822H223.222" fill="#f6a230"/><g fill="#ffe285"><use xlink:href="#B"/><use xlink:href="#B" x="-141.635"/><use xlink:href="#B" x="-70.817"/><path d="M135.334 504.396v-72.427c0-19.556-15.853-35.409-35.409-35.409s-35.409 15.853-35.409 35.409v72.427z"/></g><path d="M389.691 164.238H355.39V98.219h-.138c-1.712-23.047-20.999-41.279-44.476-41.279h-12.771C294.233 24.92 266.926 0 233.909 0c-25.786 0-48.09 15.203-58.42 37.113-8.398-11.284-21.835-18.607-36.951-18.607-23.08 0-42.248 17.07-45.539 39.249-19.639 3.76-34.474 20.217-35.954 40.463h-.132V512h298.48V405.422h34.301c36.058 0 65.394-29.336 65.394-65.394V229.632c-.003-36.058-29.338-65.394-65.397-65.394zm-251.153 54.525c17.537 0 31.803-14.267 31.803-31.804v-73.533h32.604l-.001-15.208h-47.81v88.741c0 9.151-7.445 16.596-16.595 16.596s-16.595-7.445-16.595-16.596V98.218H72.305c1.597-14.309 13.36-25.483 28.086-26.041l7.317-.277-.001-7.616c.14-16.881 13.915-30.571 30.829-30.571 16.999 0 30.828 13.83 30.828 30.829h15.208c0-27.204 22.131-49.335 49.335-49.335s49.335 22.131 49.335 49.335v7.604h27.532c15.087 0 27.558 11.421 29.217 26.071H223.22l.001 15.208h116.96V399.19c-7.504-6.375-17.21-10.233-27.805-10.233-14.671 0-27.643 7.387-35.409 18.632-7.766-11.245-20.738-18.632-35.409-18.632s-27.643 7.387-35.409 18.632c-7.766-11.245-20.738-18.632-35.409-18.632s-27.643 7.387-35.409 18.632c-7.766-11.245-20.738-18.632-35.409-18.632-10.595 0-20.3 3.858-27.805 10.233V113.426h34.614v73.533c.003 17.537 14.27 31.804 31.807 31.804zM355.39 220h34.301c5.311 0 9.632 4.321 9.632 9.632v110.397c0 5.311-4.321 9.632-9.632 9.632H355.39zM72.121 496.792v-64.823c0-15.332 12.473-27.805 27.805-27.805s27.805 12.473 27.805 27.805v64.823zm70.817 0v-64.823c0-15.332 12.473-27.805 27.805-27.805s27.805 12.473 27.805 27.805v64.823zm70.818 0v-64.823c0-15.332 12.473-27.805 27.805-27.805s27.805 12.473 27.805 27.805v64.823zm126.427 0h-55.61v-64.823c0-15.332 12.474-27.805 27.805-27.805s27.805 12.473 27.805 27.805zm99.694-156.763c0 27.672-22.514 50.186-50.186 50.186H355.39v-25.346h34.301c13.697 0 24.84-11.143 24.84-24.84V229.632c0-13.696-11.142-24.84-24.84-24.84H355.39v-25.346h34.301c27.672 0 50.186 22.514 50.186 50.186z" fill="#53180f"/></g><defs ><path id="B" d="M347.787 504.396v-72.427c0-19.556-15.854-35.409-35.409-35.409s-35.409 15.853-35.409 35.409v72.427z"/></defs></svg>