<svg xmlns="http://www.w3.org/2000/svg" width="213.333" height="40" viewBox="0 0 160 30"  fill-rule="evenodd" xmlns:v="https://vecta.io/nano"><path d="M3.473.176c-.203.258-.129.922.129 1.156.078.07.332.547.332.617 0 .039.051.129.113.199.113.125.016.121-.215-.008-.238-.133-.719.094-.82.391-.07.203-.133.227-.5.203-.289-.02-.625.277-.699.617-.051.234-.07.258-.113.148-.031-.074-.074-.148-.094-.168S1.5 3.164 1.418 3c-.191-.391-.363-.531-.66-.531-.703 0-.883.539-.438 1.32l.734 1.344.836 1.484c.285.43.652.746 1.113.969.262.125.332.199.461.512.086.203.184.371.211.371s.059.039.059.094.035.133.082.184.113.176.152.281c.098.297.184.273.352-.098.176-.383.258-.437 1.504-1.086.914-.473 1.129-.52 1.555-.344.359.152.348.109-.32-1.066-.309-.547-.312-.562-.25-1.332.066-.844.051-.914-.25-1.25-.125-.141-.293-.395-.379-.57l-.773-1.414c-.023-.02-.102-.168-.172-.336s-.164-.344-.207-.398a3.24 3.24 0 0 1-.258-.48C4.461-.031 3.82-.266 3.473.176M37.113.074c-.07.039-.18.195-.25.348l-.383.746-.477.863-.492.902c-.379.707-.57 1-.68 1.043-.148.055-.242.492-.164.762a2.8 2.8 0 0 1 .066.605c0 .211.027.398.059.418.059.035-.105.422-.262.609-.043.051-.062.098-.039.098s-.078.188-.223.422c-.312.492-.348.68-.121.598.441-.16.785-.07 1.754.461 1.055.578 1.203.707 1.367 1.187l.113.34.168-.297.32-.641c.082-.187.172-.34.199-.34s.094-.117.16-.258c.086-.191.199-.305.426-.418.406-.207.977-.77 1.145-1.133.07-.16.238-.469.367-.691l.418-.766.215-.402c.156-.145.598-1.215.598-1.441 0-.969-.918-.844-1.465.195-.09.176-.172.293-.176.266s-.031-.16-.055-.297c-.051-.301-.41-.551-.734-.5-.211.031-.437-.047-.437-.156 0-.102-.281-.398-.375-.398-.051 0-.09-.027-.09-.062 0-.07-.328-.055-.453.023-.141.086-.145.023-.012-.227l.262-.531c.078-.164.176-.316.215-.344.152-.094.145-.68-.008-.875-.16-.199-.695-.262-.957-.109M7.934 7.945c0 .145.43.922.512.922.043 0 .145-.113.227-.25a3.62 3.62 0 0 1 .273-.391c.234-.262.102-.359-.484-.359-.367 0-.527.023-.527.078m24.605-.016c-.102.063.141.551.41.82.137.133.141.133.234.012.18-.242.422-.766.383-.832-.051-.078-.902-.082-1.027 0M5.98 8.934a.57.57 0 0 0 .109.977c.438.207.863-.043.863-.512 0-.52-.562-.785-.973-.465m28.773.027c-.234.203-.262.629-.047.84.371.375 1.027.121 1.027-.398a.58.58 0 0 0-.98-.441m-26.277.695c-.164.641-1.914 1.715-2.758 1.699-.512-.008-.516 0-.281.395.094.156.203.367.246.469s.102.18.133.18.051.055.051.121.105.277.234.473.23.383.23.418.098.219.219.41a15.99 15.99 0 0 1 .551 1.012l.363.699c.059.059.305.516.363.668.02.055.109.223.203.367s.195.336.234.418.258.504.496.934l.656 1.211c.301.566.383.586.383.09 0-.699.23-.973 1.301-1.523.793-.41 1.133-.453 1.613-.203l.199.102-.18-.516c-.102-.281-.254-.641-.344-.801l-1.836-3.41-.242-.434c-.07-.086-.391-.687-.613-1.16-.094-.195-.238-.449-.32-.566s-.285-.469-.449-.789c-.348-.684-.348-.684-.453-.262m24.371-.105c-.281.453-.316.516-.316.613 0 .059-.027.102-.059.102s-.086.07-.109.152-.086.195-.133.25-.254.43-.465.832l-1.156 2.168-.742 1.398c-.02.02-.109.184-.199.367s-.187.348-.215.367-.125.199-.223.402c-.277.57-.379.754-.477.852-.047.047-.086.129-.086.18s-.02.145-.039.211.027 0 .102-.145c.488-.926 1.266-1.098 2.398-.527.973.492 1.27.852 1.27 1.543.004.41.066.313.98-1.457l.387-.656c.059-.066.117-.184.133-.266a.64.64 0 0 1 .113-.25c.094-.117.23-.344.293-.488.051-.121.246-.492.543-1.031l.402-.77.219-.398a5.65 5.65 0 0 0 .258-.469l.457-.859.238-.426-.195.047c-.637.148-.691.137-1.461-.262-1.426-.738-1.652-.926-1.762-1.461l-.043-.203-.113.184m-28.797.699c-.082.176-.187.34-.234.371-.234.148-.023.52.234.41.168-.078.191-.082.48-.09.328-.012.336-.059.055-.59-.262-.5-.344-.516-.535-.102m32.891.074c-.281.535-.273.609.063.609.148 0 .332.031.402.07.402.215.488-.098.16-.594-.129-.195-.234-.383-.234-.418 0-.184-.207-.008-.391.332m-16.598 4.328c-.324 1.738-1.098 4.84-1.449 5.793-.402 1.098 1.711 2.184 2.973 1.531.863-.449.984-.699.727-1.48l-1.16-3.762-.828-3.215c-.02-.027-.137.484-.262 1.133" fill="rgb(91.372549%,82.352941%,70.196078%)"/><path d="M123.102.176c-2.273.465-2.891.652-4.07 1.23-.863.422-1.699.918-1.699 1.008 0 .027-.043.055-.098.055s-.215.102-.359.23-.277.234-.301.234c-.039 0-.625.527-1.039.934-.352.352-.98 1.059-1.102 1.242a3.96 3.96 0 0 1-.277.355c-.086.094-.156.188-.156.215s-.121.238-.27.465c-.312.484-1.129 2.125-1.203 2.418-.027.113-.152.504-.281.871-.227.652-.32 1.059-.594 2.535-.297 1.625-.18 5.531.219 7.125l.129.648c0 .066.105.43.238.809l.289.883a6.16 6.16 0 0 0 .254.633l.324.727c.07.16.156.328.195.367s.156.246.262.453.242.438.301.5a.84.84 0 0 1 .152.23c.234.613 2.797 3.258 3.16 3.258.027 0 .109.055.188.125.168.152.871.555 1.371.781l.598.285c2.352 1.184 8.539 1.625 12.246.875.359-.074.73-.133.82-.137s.469-.094.836-.207l.934-.273c.145-.035.504-.168.801-.293s.559-.227.59-.227c.148.004 2.727-1.324 3.309-1.699.164-.109.41-.246.543-.309s.258-.137.281-.172.234-.18.473-.32.438-.277.438-.309.039-.055.09-.055.168-.062.266-.141l.176-.137V12.867h-14v6.199h6v2.574l-.375.195-.914.484c-4.234 2.234-8.738 1.297-10.332-2.152-.875-1.902-1.184-6.406-.582-8.566l.246-.902c.055-.219.141-.461.184-.531s.148-.293.23-.484c.754-1.789 2.852-3.102 5.109-3.199 2.457-.105 4.324 1.016 5.164 3.098.113.289.152.289 2.605-.156l2.563-.461 3.633-.695c.109-.066-.004-.555-.281-1.238-.105-.254-.219-.551-.25-.652-.215-.691-1.652-2.98-1.871-2.98-.035 0-.062-.039-.062-.09 0-.211-2.086-1.84-2.355-1.84-.062 0-.109-.027-.109-.055 0-.109-1.613-.77-2.133-.871l-1.168-.242-.801-.164-4.199.004-4.332.035M51 15v14.531h9.133V17.867h9.668v11.664H79V.469h-9.199v10.133h-9.668V.469H51V15M82.668 4.102v3.633h9.133v21.797h9.133V7.734h9.133V.469H82.668v3.633M19.449 2.18a.78.78 0 0 0 .27 0c.063-.016-.004-.031-.152-.031s-.199.016-.117.031m2.137 0c.082.016.203.016.266 0s-.004-.031-.152-.031-.199.016-.113.031M5.93 7.887l-.984.543c-.34.188-.613.512-.613.727 0 .055-.047.133-.109.164-.148.086-.07.547.098.547.148 0 .547.711.547.977 0 .316.16.395.801.387l.566-.004.836-.465c1.184-.656 1.25-.719 1.355-1.312.027-.137.074-.25.105-.25s.039-.059.023-.133-.086-.133-.145-.133c-.152 0-.578-.797-.527-.988.035-.137-.113-.34-.191-.258-.023.023-.148-.004-.273-.059-.441-.18-.789-.121-1.488.258m27.797-.199c-.082.078-.117.168-.094.246.055.164-.34.937-.496.98-.141.035-.219.324-.133.48l.195.418c.152.336.199.375.902.754l.875.477c.637.348 1.648.258 1.664-.152.012-.293.414-1.023.566-1.023.098 0 .125-.047.125-.199 0-.109-.027-.199-.066-.199s-.066-.078-.066-.172c0-.445-.238-.668-1.383-1.293l-.883-.48-.539.023c-.406.016-.57.051-.668.141M6.633 8.762c.703.293.484 1.297-.289 1.301-.746.008-.934-1.004-.246-1.301.258-.113.262-.113.535 0m28.949.074c.234.152.324.559.188.844-.305.645-1.301.445-1.301-.258 0-.598.602-.914 1.113-.586m-7.027.363c0 .238.012.336.027.219a2.01 2.01 0 0 0 0-.434c-.016-.121-.027-.023-.027.215m.98 7.453c-.371.188-.758.688-1.121 1.449-.07.145-.25.484-.402.754l-.277.488v3.316l.035 3.355c.023.02.043.887.051 1.926l.008 1.891.039-3.699h1.328c.73 0 1.375-.02 1.434-.039.094-.035.105-.285.105-2.125v-2.082l.574-1.062c.313-.582.598-1.086.633-1.121s.059-.117.059-.184.027-.121.059-.121.098-.098.145-.215.109-.23.133-.25c.102-.074.141-.336.051-.32-.062.016-.098-.098-.121-.379-.062-.711-.328-.984-1.484-1.539-.574-.277-.77-.281-1.246-.043m-18.496 1.18c-.996.555-1.207.832-1.16 1.523.016.242-.004.34-.059.328-.047-.008-.008.109.082.27.09.152.227.414.305.578a27.48 27.48 0 0 0 .504.945l.355.648v1.961c0 1.73.012 1.973.105 2.008.277.105 2.566.043 2.609-.074.023-.059.008-1.699-.039-3.641l-.078-3.531-.273-.496c-.551-.996-1.23-1.148-2.352-.52m7.496 3.719c-.5 1.41-1.145 2.887-2.016 4.617-.055.109-.051.117.02.051s.996-.086 4.176-.086c2.523 0 4.086-.023 4.086-.062s-.164-.418-.359-.852c-.555-1.207-1.273-2.984-1.504-3.703l-.082-.246-.316.324c-1.031 1.059-2.852.875-3.578-.363-.215-.371-.172-.402-.426.32" fill="rgb(26.27451%,26.27451%,26.27451%)"/><path d="M19.797 2.16c-.02.016-.211.039-.434.047-.855.031-2.492.598-3.262 1.125-.16.109-.316.199-.348.199s-.094.063-.137.137-.113.133-.148.133c-.441 0-2.023 2.285-2.398 3.465-.352 1.117-.352 1.102-.383 5.438l-.031 4.07.172.387c.094.215.172.426.172.473s.043.121.098.164.215.297.355.563l.258.48.082 3.551.008 3.641c-.043.055-.059.348-.043.777l.035 1.512c.004.648.027.824.102.855.102.035.141.012.559-.367l.348-.301c.09-.066.426-.469.887-1.066l.23-.277c.043-.047.082-.105.082-.125s.102-.18.223-.355c.238-.34.34-.539.32-.652-.004-.039.211-.504.48-1.035.465-.906 1.168-2.59 1.516-3.629l.191-.5c.02-.02.039-.094.047-.168s.172-.703.371-1.398c.563-1.937.977-3.727 1.242-5.328.145-.867.227-.879.41-.059l.238.953.219.832c.758 3.152 2.379 7.867 3.383 9.848.086.176.16.395.16.492 0 .164.723 1.441 1.266 2.238.453.66 1.496 1.738 1.656 1.707.105-.023.117-3.789.008-3.988-.039-.074-.062-1.402-.062-3.395v-3.27l.16-.254c.086-.141.289-.508.449-.816l.289-.562v-4.066c0-4.477-.016-5.148-.141-5.516-.047-.137-.074-.25-.059-.25s-.027-.152-.102-.336-.133-.387-.133-.449-.047-.203-.102-.305-.098-.23-.098-.281-.023-.094-.055-.105-.164-.23-.305-.484c-.656-1.207-2.016-2.504-3.094-2.949-.137-.059-.262-.125-.281-.148-.027-.039-.477-.195-1.168-.41-.465-.145-.996-.207-2.066-.238-.625-.016-1.152-.02-1.168 0" fill="rgb(54.509804%,41.960784%,26.666667%)"/><path d="M6.781 7.445a.97.97 0 0 0 .301 0c.082-.016.016-.027-.148-.027s-.234.012-.152.027m27.668 0a.97.97 0 0 0 .301 0c.082-.016.016-.027-.148-.027s-.234.012-.152.027m-26.418.887c.059.109.121.199.141.199s-.016-.09-.07-.199-.121-.199-.137-.199.012.09.066.199m27.48 1.504c-.102.09-.16.164-.125.164s.129-.074.215-.168c.199-.211.152-.211-.09.004M5.719 11.379c.082.016.203.016.266 0s-.004-.031-.152-.027-.199.012-.113.027m29.867 0c.082.016.203.016.266 0s-.004-.031-.152-.027-.199.012-.113.027m-5.602 5.066c.082.016.215.016.297 0s.016-.027-.148-.027-.23.012-.148.027m-9.234 5.801a.59.59 0 0 0 .234 0c.063-.016.012-.031-.117-.031s-.18.016-.117.031" fill="rgb(58.823529%,58.431373%,57.254902%)"/><path d="M20.512 13.316c-.016.027-.047.215-.066.418l-.035.367.07-.352c.039-.191.098-.352.129-.352s.059-.027.059-.066c0-.078-.113-.09-.156-.016m.164.215c-.004.059.035.25.086.438.051.18.094.285.098.23s-.035-.25-.09-.434-.094-.289-.094-.234m-.41 1.082c0 .02-.062.34-.137.715s-.125.695-.109.711.09-.289.172-.684.125-.727.109-.746-.035-.016-.035.004m.734.277c0 .117.289 1.18.313 1.152s-.238-1.121-.285-1.172c-.016-.016-.027-.004-.027.02m.398 1.543c0 .117.285 1.105.313 1.078.016-.016-.039-.266-.117-.555-.133-.492-.195-.652-.195-.523m-1.66.637c-.039.191-.062.363-.047.379s.063-.129.102-.32.063-.359.047-.375-.059.125-.102.316m-6.937.141c0 .02.043.141.098.266s.098.18.098.125c0-.098-.187-.48-.195-.391m9.023.773l.117.398c.043.156.09.273.105.258.035-.035-.18-.773-.223-.773-.02 0-.02.051 0 .117m-2.484.656c-.043.168-.066.32-.051.336s.063-.113.105-.281.066-.324.051-.34-.062.113-.105.285m-.168.598c-.023.098-.031.191-.016.207s.047-.051.07-.148.035-.191.02-.207-.051.051-.074.148m3.039-.004a1.34 1.34 0 0 0 .09.297c.047.129.09.191.09.137s-.039-.191-.09-.301-.09-.172-.09-.133m-3.234.676c-.059.211-.094.395-.082.406s.074-.145.137-.352.098-.391.082-.406-.074.145-.137.352" fill="rgb(64.313725%,48.627451%,36.078431%)"/><path d="M9.82 19.301c0 .184.012.25.027.148a1.18 1.18 0 0 0 0-.332c-.016-.082-.027 0-.027.184m12.609 2.316l-.195.215.215-.195c.203-.18.246-.238.195-.238-.012 0-.109.098-.215.219" fill="rgb(54.901961%,54.901961%,54.901961%)"/><path d="M6.785 7.516a.75.75 0 0 0 .266-.004c.063-.016-.004-.027-.152-.027s-.195.012-.113.031m27.699-.004a.59.59 0 0 0 .234 0c.063-.016.008-.031-.117-.031s-.184.016-.117.031M13.141 17.945c.313.469.328.484.199.219-.07-.152-.18-.316-.242-.367-.074-.059-.059-.008.043.148m15.105.355c-.098.203-.164.367-.148.367.047 0 .383-.676.352-.707-.012-.012-.105.141-.203.34m4.027.012c-.004.152.016.293.047.313s.039-.078.027-.215c-.035-.367-.07-.41-.074-.098m-18.695.355c.031.055.07.457.094.898l.035.801.016-.77c.008-.617-.012-.797-.094-.902-.059-.07-.082-.082-.051-.027m14.227.438c-.137.23-.137.289-.121 3.547l.016 3.316.031-3.336.156-3.551c.16-.293.094-.273-.082.023m-9.297 2.336c-.059.172-.098.328-.082.34s.074-.117.133-.289.098-.328.082-.34-.074.117-.133.289m-4.746.824l.02.516a11.35 11.35 0 0 0 0-1.031c-.012-.285-.02-.051-.02.516m9.188-.715c.02.047.082.242.148.438s.129.344.141.328c.035-.035-.238-.848-.285-.848-.02 0-.02.035-.004.082m-4.742.723c-.039.117-.062.227-.047.242s.059-.07.098-.191.066-.223.051-.238-.059.07-.102.188m5.125.281c0 .082.281.785.305.762.016-.012-.035-.187-.109-.387-.133-.348-.195-.465-.195-.375m-5.59.883c-.109.242-.09.297.031.074.059-.105.09-.203.074-.219s-.062.051-.105.145m6.063.328c0 .039.043.145.094.234s.098.137.098.102-.043-.145-.098-.234-.094-.137-.094-.102m-9.98 1.402c0 .477.012.66.023.414s.016-.641 0-.867-.023-.023-.023.453m3.223-.199c-.098.199-.164.363-.148.363.047 0 .383-.672.352-.703-.012-.016-.105.141-.203.34m7.156-.27c0 .039.043.141.098.234s.094.137.094.098-.043-.141-.094-.23-.098-.137-.098-.102m-7.574 1.039c-.055.113-.094.23-.082.262s.07-.059.133-.203c.133-.312.102-.348-.051-.059m7.977-.172c0 .035.043.141.094.234s.098.137.098.098-.043-.141-.098-.23-.094-.137-.094-.102" fill="rgb(39.215686%,35.294118%,30.980392%)"/></svg>