<?xml version="1.0" standalone="no"?>
<!DOCTYPE svg PUBLIC "-//W3C//DTD SVG 20010904//EN"
 "http://www.w3.org/TR/2001/REC-SVG-20010904/DTD/svg10.dtd">
<svg version="1.0" xmlns="http://www.w3.org/2000/svg"
 width="336.000000pt" height="195.000000pt" viewBox="0 0 336.000000 195.000000"
 preserveAspectRatio="xMidYMid meet">
<metadata>
Created by potrace 1.10, written by Peter Selinger 2001-2011
</metadata>
<g transform="translate(0.000000,195.000000) scale(0.100000,-0.100000)"
fill="#000000" stroke="none">
<path d="M1169 1704 c-117 -118 -219 -214 -226 -214 -10 0 -13 48 -13 210 0
179 -2 210 -15 210 -8 0 -109 -95 -224 -211 -124 -127 -213 -209 -220 -205 -7
5 -11 47 -11 122 0 102 -2 114 -17 114 -282 5 -418 1 -421 -12 -1 -7 20 -35
48 -63 l50 -49 0 -576 0 -576 -60 -59 c-32 -32 -57 -62 -54 -67 7 -12 441 -10
449 2 3 5 6 172 5 370 l0 361 56 59 c32 33 61 60 65 60 5 0 10 -192 11 -427
l3 -428 219 -3 c121 -1 223 1 228 6 5 5 -19 35 -52 69 l-60 60 0 301 0 301 59
60 c32 34 63 61 70 61 9 0 11 -107 11 -427 l-1 -428 225 -3 c138 -1 226 1 226
7 0 5 -27 35 -60 67 l-60 57 0 728 c0 400 -4 730 -8 733 -5 3 -105 -92 -223
-210z"/>
<path d="M1530 1732 c-13 -5 -14 -452 -1 -452 5 0 35 27 67 60 47 50 63 60 91
60 20 0 33 -5 33 -12 0 -7 0 -220 0 -473 l0 -460 -60 -60 c-34 -34 -57 -64
-54 -68 10 -10 562 -9 568 1 3 5 -22 35 -54 67 l-60 59 0 473 0 473 32 0 c24
0 44 -12 89 -55 32 -30 62 -55 68 -55 8 0 11 70 11 220 0 203 -1 220 -17 220
-267 3 -706 4 -713 2z"/>
<path d="M2327 1732 c-26 -5 -21 -13 38 -72 l55 -54 0 -791 c0 -442 4 -796 9
-804 7 -11 106 83 405 381 l396 396 0 134 0 134 50 52 c27 29 56 52 65 52 28
0 16 30 -12 31 -28 0 -411 0 -425 -1 -5 0 -8 -58 -8 -128 l0 -128 -49 -51
c-27 -28 -58 -56 -70 -62 l-21 -12 2 293 3 293 165 3 165 2 60 -60 c33 -33 63
-60 67 -60 4 0 8 101 8 225 0 124 -3 225 -7 225 -171 3 -884 4 -896 2z"/>
</g>
</svg>
